Coordinates
version=1
nRows=9
nColumns=24
inDegrees=yes

Units are S.I. units (second, meters, Newtons, ...)
Angles are in degrees.

endheader
time	pelvis_tilt	pelvis_list	pelvis_rotation	pelvis_tx	pelvis_ty	pelvis_tz	hip_flexion_r	hip_adduction_r	hip_rotation_r	knee_angle_r	ankle_angle_r	subtalar_angle_r	mtp_angle_r	hip_flexion_l	hip_adduction_l	hip_rotation_l	knee_angle_l	ankle_angle_l	subtalar_angle_l	mtp_angle_l	lumbar_extension	lumbar_bending	lumbar_rotation
      4.08000000	      7.81711298	     -3.16711087	    -24.82432995	     -0.05620432	      0.73041978	     -0.16015936	    -23.04763110	     -1.40041002	     10.50846793	    -12.13459880	     24.14760206	     -3.90898449	      0.00000000	     10.90740584	     -2.71545140	     -7.71678006	     -2.64653658	     -3.23949932	    -23.45703136	      0.00000000	    -23.82245801	     -4.10020130	     13.85956041
      4.09000000	      8.45886238	     -2.64671640	    -25.27875645	     -0.04298061	      0.73039470	     -0.16070723	    -22.99610993	     -2.77599554	      9.78401630	    -14.68295573	     23.60289440	     -2.87081424	      0.00000000	     10.50498979	     -1.63971636	     -7.91776934	     -4.13024435	     -4.63368322	    -24.90337101	      0.00000000	    -24.11782094	     -4.87974412	     14.10198311
      4.10000000	      9.15334765	     -2.03224629	    -25.58914453	     -0.02990151	      0.73069520	     -0.16145263	    -22.63485665	     -4.14511905	      9.10419798	    -17.76709387	     22.62126533	     -2.21468449	      0.00000000	     10.37777679	     -0.44398179	     -8.37129720	     -6.25719840	     -5.26830912	    -25.71971875	      0.00000000	    -24.47890658	     -5.73734967	     14.25166059
      4.11000000	      9.83780197	     -1.34593874	    -25.69951091	     -0.01692389	      0.73116342	     -0.16242885	    -21.87969984	     -5.45687333	      8.27419685	    -21.43020627	     21.12819080	     -1.86814456	      0.00000000	     10.46939438	      0.82625595	     -8.86961179	     -8.75217206	     -5.10736848	    -25.94930109	      0.00000000	    -24.84494277	     -6.59136819	     14.25555688
      4.12000000	     10.50693463	     -0.64125494	    -25.67887277	     -0.00407812	      0.73175183	     -0.16349975	    -20.75914429	     -6.68821088	      7.44011876	    -25.60515410	     19.08347216	     -1.80473620	      0.00000000	     10.58579616	      2.10232145	     -9.49196215	    -11.26239687	     -4.13255722	    -25.49486909	      0.00000000	    -25.21942428	     -7.41457858	     14.20651767
      4.13000000	     11.14823613	      0.07736330	    -25.58252048	      0.00861662	      0.73237595	     -0.16455894	    -19.34029355	     -7.79802871	      6.92757125	    -30.12447295	     16.43063324	     -2.44114760	      0.00000000	     10.58004575	      3.38983909	    -10.11145817	    -13.48394502	     -2.61771707	    -24.78187436	      0.00000000	    -25.58123461	     -8.22390727	     14.08307744
      4.14000000	     11.66636466	      0.83972515	    -25.53008586	      0.02112011	      0.73289936	     -0.16557299	    -17.45163812	     -8.85370048	      6.66083173	    -34.98705217	     13.35707074	     -3.38805613	      0.00000000	     10.35368516	      4.75344421	    -10.35217640	    -15.02019882	     -1.39723777	    -24.77633057	      0.00000000	    -25.78879907	     -9.03043956	     14.07238747
      4.15000000	     12.13995560	      1.64156512	    -25.51330995	      0.03341825	      0.73337759	     -0.16650900	    -15.28028786	     -9.85920939	      6.68462071	    -39.96133770	     10.00637665	     -4.66324960	      0.00000000	      9.90347163	      6.18401220	    -10.54346639	    -16.00485817	     -0.10697296	    -24.73828467	      0.00000000	    -25.93666647	     -9.87211885	     14.06853547
      4.16000000	     12.52147654	      2.42530991	    -25.56880507	      0.04546681	      0.73382427	     -0.16730380	    -12.84685899	    -10.71044125	      7.07881989	    -44.90518168	      6.57887451	     -6.18857411	      0.00000000	      9.23660917	      7.59455877	    -10.72117088	    -16.40692284	      1.14968162	    -24.72225072	      0.00000000	    -25.99394888	    -10.68358881	     14.06316795
